# xmcd
#
# Track frame offsets:
#	150
#	19058
#	39726
#	59246
#	78821
#	101668
#	122880
#	142848
#	166185
#	189542
#
# Disc length: 2791 seconds
#
# Revision: 1
# Processed by: cddbd v1.5.2PL0 Copyright (c) Steve Scherf et al.
# Submitted via: audiograbber 1.83.01
#
DISCID=830ae50a
DTITLE=Defect Noises - Audio Depressions
DYEAR=2009
DGENRE=Metal
TTITLE0=Adrenaline Delusion
TTITLE1=Screaming Machine
TTITLE2=Noisedeath
TTITLE3=Against Everything
TTITLE4=Evolution in Reverse
TTITLE5=Dissonant Aggressor
TTITLE6=Pseudo Vision
TTITLE7=Suffer Innovator
TTITLE8=Death Door
TTITLE9=Audio Depressions
EXTD=
EXTT0=
EXTT1=
EXTT2=
EXTT3=
EXTT4=
EXTT5=
EXTT6=
EXTT7=
EXTT8=
EXTT9=
PLAYORDER=
